<svg width="541" height="48" viewBox="0 0 541 48" fill="none" xmlns="http://www.w3.org/2000/svg">
<path d="M21.64 0.559998V6.16H14.48V30H8.68V6.16H1.8V0.559998H21.64ZM39.4219 15.32C39.4219 12.6533 40.0885 10.16 41.4219 7.84C42.7819 5.52 44.6085 3.68 46.9019 2.32C49.2219 0.933332 51.7285 0.239999 54.4219 0.239999C57.1152 0.239999 59.6085 0.933332 61.9019 2.32C64.2219 3.68 66.0619 5.52 67.4219 7.84C68.8085 10.16 69.5019 12.6533 69.5019 15.32C69.5019 18.04 68.8085 20.5467 67.4219 22.84C66.0619 25.1333 64.2219 26.96 61.9019 28.32C59.6085 29.6533 57.1152 30.32 54.4219 30.32C51.7019 30.32 49.1952 29.6533 46.9019 28.32C44.6085 26.96 42.7819 25.1333 41.4219 22.84C40.0885 20.5467 39.4219 18.04 39.4219 15.32ZM45.4219 15.32C45.4219 17.0267 45.8219 18.6 46.6219 20.04C47.4485 21.48 48.5552 22.6267 49.9419 23.48C51.3552 24.3067 52.9152 24.72 54.6219 24.72C56.2752 24.72 57.7819 24.3067 59.1419 23.48C60.5019 22.6267 61.5685 21.4933 62.3419 20.08C63.1152 18.64 63.5019 17.0533 63.5019 15.32C63.5019 13.56 63.1019 11.96 62.3019 10.52C61.5019 9.08 60.4085 7.94667 59.0219 7.12C57.6619 6.26667 56.1419 5.84 54.4619 5.84C52.7819 5.84 51.2485 6.26667 49.8619 7.12C48.5019 7.94667 47.4219 9.08 46.6219 10.52C45.8219 11.96 45.4219 13.56 45.4219 15.32ZM90.2844 0.559998H99.0844C102.844 0.559998 105.938 1.29333 108.364 2.76C110.791 4.2 112.551 6.08 113.644 8.4C114.764 10.6933 115.324 13.16 115.324 15.8C115.324 18.6267 114.658 21.12 113.324 23.28C111.991 25.44 110.191 27.1067 107.924 28.28C105.684 29.4267 103.218 30 100.524 30H90.2844V0.559998ZM99.5244 24.4C102.538 24.4 104.924 23.6267 106.684 22.08C108.444 20.5333 109.324 18.3067 109.324 15.4C109.324 13.0533 108.831 11.1867 107.844 9.8C106.884 8.41333 105.751 7.45333 104.444 6.92C103.164 6.38667 101.951 6.12 100.804 6.12H96.0844V24.4H99.5244ZM134.344 15.32C134.344 12.6533 135.01 10.16 136.344 7.84C137.704 5.52 139.53 3.68 141.824 2.32C144.144 0.933332 146.65 0.239999 149.344 0.239999C152.037 0.239999 154.53 0.933332 156.824 2.32C159.144 3.68 160.984 5.52 162.344 7.84C163.73 10.16 164.424 12.6533 164.424 15.32C164.424 18.04 163.73 20.5467 162.344 22.84C160.984 25.1333 159.144 26.96 156.824 28.32C154.53 29.6533 152.037 30.32 149.344 30.32C146.624 30.32 144.117 29.6533 141.824 28.32C139.53 26.96 137.704 25.1333 136.344 22.84C135.01 20.5467 134.344 18.04 134.344 15.32ZM140.344 15.32C140.344 17.0267 140.744 18.6 141.544 20.04C142.37 21.48 143.477 22.6267 144.864 23.48C146.277 24.3067 147.837 24.72 149.544 24.72C151.197 24.72 152.704 24.3067 154.064 23.48C155.424 22.6267 156.49 21.4933 157.264 20.08C158.037 18.64 158.424 17.0533 158.424 15.32C158.424 13.56 158.024 11.96 157.224 10.52C156.424 9.08 155.33 7.94667 153.944 7.12C152.584 6.26667 151.064 5.84 149.384 5.84C147.704 5.84 146.17 6.26667 144.784 7.12C143.424 7.94667 142.344 9.08 141.544 10.52C140.744 11.96 140.344 13.56 140.344 15.32Z" fill="white"/>
<path fill-rule="evenodd" clip-rule="evenodd" d="M530.372 11.2158C525.593 12.1996 522 16.4302 522 21.5C522 27.299 526.701 32 532.5 32C535.496 32 538.199 30.7454 540.112 28.7328C538.219 33.5722 533.51 37 528 37C520.82 37 515 31.1797 515 24C515 16.8203 520.82 11 528 11C528.81 11 529.603 11.0741 530.372 11.2158Z" fill="white"/>
</svg>
